PathFileType	4	(x/y/z)	S05_M20_T01
DataRate	CameraRate	NumFrames	NumMarkers	Units	OrigDataRate	OrigDataStartFrame	OrigNumFrames
240	240	11	50	mm	240	136	541
Frame#	Time	Sternum			R.Acromium			L.Acromium			Top.Head			R.ASIS			L.ASIS			R.PSIS			L.PSIS			R.Great.Tro			L.Great.Tro			R.Iliac.Crest			L.Iliac.Crest			V.Sacral			R.Thigh.Upper.Post			R.Thigh.Lower.Ant			R.Thigh.Lower.Post			R.Thigh.Upper.Ant			R.Knee.Lat			R.Knee.Med			R.Shank.Upper.Post			R.Shank.Lower.Ant			R.Shank.Lower.Post			R.Shank.Upper.Ant			R.Ankle.Lat			R.Ankle.Med			R.Heel.Upper			R.Heel.Med			R.Heel.Lat			R.Toe.Lat			R.Toe.Med			R.Toe.Tip			L.Thigh.Upper.Post			L.Thigh.Lower.Ant			L.Thigh.Lower.Post			L.Thigh.Upper.Ant			L.Knee.Lat			L.Shank.Upper.Post			L.Shank.Lower.Ant			L.Shank.Lower.Post			L.Shank.Upper.Ant			L.Ankle.Lat			L.Ankle.Med			L.Heel.Upper			L.Heel.Med			L.Heel.Lat			L.Toe.Lat			L.Toe.Med			L.Toe.Tip			Cervical.Spine			Back			
		X1	Y1	Z1	X2	Y2	Z2	X3	Y3	Z3	X4	Y4	Z4	X5	Y5	Z5	X6	Y6	Z6	X7	Y7	Z7	X8	Y8	Z8	X9	Y9	Z9	X10	Y10	Z10	X11	Y11	Z11	X12	Y12	Z12	X13	Y13	Z13	X14	Y14	Z14	X15	Y15	Z15	X16	Y16	Z16	X17	Y17	Z17	X18	Y18	Z18	X19	Y19	Z19	X20	Y20	Z20	X21	Y21	Z21	X22	Y22	Z22	X23	Y23	Z23	X24	Y24	Z24	X25	Y25	Z25	X26	Y26	Z26	X27	Y27	Z27	X28	Y28	Z28	X29	Y29	Z29	X30	Y30	Z30	X31	Y31	Z31	X32	Y32	Z32	X33	Y33	Z33	X34	Y34	Z34	X35	Y35	Z35	X36	Y36	Z36	X37	Y37	Z37	X38	Y38	Z38	X39	Y39	Z39	X40	Y40	Z40	X41	Y41	Z41	X42	Y42	Z42	X43	Y43	Z43	X44	Y44	Z44	X45	Y45	Z45	X46	Y46	Z46	X47	Y47	Z47	X48	Y48	Z48	X49	Y49	Z49	X50	Y50	Z50	

136	0.5625	-102.93	1255.9	293.73	-185.91	1517	452.29	-195.1	1527.7	114.11	-194.14	1816	277.29	-158.63	1001.6	416.05	-171.21	1005.1	167.56	-363.98	1018	344.65	-368.21	1027.5	253.73	-225.38	923.84	490.46	-275.01	933.88	101.21	-245.18	1084.5	462.37	-261.19	1085.3	128.03	-378.77	987.15	310.53	-65.684	745.2	486.53	5.8627	709.24	423.08	-32.757	663.18	464.81	-32.093	787.61	443.37	6.3508	582.28	443.89	16.995	571.61	309.66	49.988	335.76	432.71	134.56	308.18	439.09	87.873	269.45	417.5	97.359	375.51	451.41	174.91	206.45	422.74	183.92	243.42	338.81	158.68	123.07	357.49	190.53	108.18	331.29	181.81	104.38	394.92	312	195.71	465.46	341.92	232.97	352.58	374.97	284.19	404.46	-323	700.21	116.22	-259.68	612.12	139.78	-331.58	606.81	136.82	-244.37	699.48	116.26	-341.98	514.52	147.85	-446.64	329.66	159.07	-392.99	258.91	163.45	-462.73	261.07	180.77	-380.95	327.24	147.8	-458.51	121.4	193.59	-422.04	131.91	279.95	-521.05	71.968	250.64	-510.63	45.886	281.5	-523.37	47.021	220.93	-344.73	36.967	154.29	-313.66	45.092	273.01	-253.1	51.163	214.99	-249.08	1559.1	290.13	-366.96	1282.7	292.24
137	0.56667	-97.93	1254.8	293.77	-180.71	1515.8	452.81	-190.4	1526.9	114.68	-189.19	1814.9	278.17	-153.01	1000.3	415.8	-166.52	1004.1	167.36	-358.61	1017	345.19	-363.16	1026.7	254.3	-219.6	922.39	490.33	-270.73	933.26	101.25	-239.43	1083.2	462.56	-256.61	1084.5	128.26	-373.56	986.22	311.06	-60.863	743.06	486.03	10.317	706.78	422.35	-28.337	660.88	464.23	-27.34	785.3	442.7	10.78	580.35	443.4	21.245	569.45	308.95	58.029	334.59	433.08	142.97	308.37	439.53	96.985	268.85	418.07	104.74	375.18	451.64	185.17	207.13	423.51	193.59	244.03	339.51	170.27	123.34	358.47	202.36	108.89	332.32	193.68	105.08	395.95	322.44	198.58	466.34	351.85	236.06	353.36	384.12	287.91	405.13	-319.79	699.87	116.3	-256.84	611.48	139.69	-328.77	606.52	136.87	-241.16	698.76	116.12	-339.7	514.24	147.93	-445.34	329.92	159.31	-392.07	258.87	163.53	-461.77	261.41	181	-379.7	327.14	147.88	-458.22	121.63	193.79	-421.58	131.98	280.13	-520.89	72.175	250.94	-510.46	46.05	281.75	-523.28	47.255	221.21	-344.73	36.973	154.32	-313.54	45.029	273.02	-253.02	51.013	214.96	-244.15	1557.9	290.78	-361.98	1281.6	292.88
138	0.57083	-92.906	1253.8	293.82	-175.5	1514.5	453.34	-185.67	1526.1	115.25	-184.24	1813.8	279.07	-147.38	999.05	415.55	-161.82	1003.2	167.16	-353.22	1016	345.73	-358.09	1025.8	254.88	-213.81	920.92	490.21	-266.43	932.62	101.31	-233.67	1081.9	462.75	-252.02	1083.6	128.51	-368.34	985.27	311.61	-55.992	740.95	485.52	14.837	704.38	421.63	-23.846	658.63	463.66	-22.538	783.04	442.04	15.275	578.46	442.93	25.538	567.3	308.28	65.894	333.44	433.44	151.17	308.5	439.96	105.85	268.25	418.64	111.98	374.82	451.88	195.1	207.75	424.25	202.95	244.56	340.19	181.45	123.59	359.43	213.75	109.54	333.33	205.12	105.74	396.96	332.53	201.26	467.15	361.42	238.94	354.07	392.95	291.38	405.73	-316.54	699.51	116.39	-253.96	610.83	139.59	-325.92	606.21	136.91	-237.92	698.03	115.98	-337.38	513.94	148	-444.01	330.17	159.54	-391.12	258.83	163.61	-460.78	261.75	181.21	-378.41	327.03	147.95	-457.92	121.88	193.99	-421.11	132.05	280.3	-520.72	72.4	251.23	-510.29	46.235	282.01	-523.19	47.508	221.49	-344.74	36.979	154.36	-313.41	44.966	273.04	-252.94	50.861	214.92	-239.19	1556.8	291.43	-356.98	1280.4	293.53
139	0.575	-87.862	1252.7	293.87	-170.26	1513.2	453.89	-180.92	1525.2	115.84	-179.28	1812.6	279.99	-141.75	997.73	415.31	-157.12	1002.2	166.98	-347.83	1014.9	346.28	-353.02	1024.9	255.48	-208.01	919.44	490.09	-262.12	931.96	101.37	-227.9	1080.5	462.96	-247.42	1082.8	128.77	-363.11	984.28	312.16	-51.068	738.9	485.01	19.429	702.05	420.91	-19.277	656.44	463.09	-17.68	780.83	441.38	19.841	576.61	442.5	29.879	565.18	307.66	73.582	332.3	433.8	159.17	308.56	440.39	114.46	267.64	419.22	119.09	374.42	452.13	204.7	208.3	424.97	211.99	245.01	340.84	192.19	123.8	360.38	224.69	110.12	334.3	216.12	106.33	397.94	342.26	203.74	467.89	370.63	241.58	354.71	401.48	294.57	406.24	-313.26	699.14	116.49	-251.05	610.17	139.48	-323.04	605.88	136.97	-234.65	697.28	115.83	-335	513.64	148.07	-442.63	330.43	159.76	-390.13	258.79	163.69	-459.76	262.1	181.42	-377.08	326.92	148.02	-457.6	122.14	194.18	-420.64	132.14	280.47	-520.55	72.647	251.52	-510.11	46.444	282.26	-523.1	47.781	221.76	-344.74	36.984	154.39	-313.29	44.903	273.05	-252.85	50.707	214.89	-234.2	1555.6	292.1	-351.96	1279.2	294.2
140	0.57917	-82.798	1251.6	293.94	-165	1511.9	454.45	-176.14	1524.3	116.44	-174.31	1811.4	280.92	-136.11	996.39	415.08	-152.4	1001.2	166.8	-342.43	1013.8	346.84	-347.93	1024	256.08	-202.19	917.95	489.98	-257.8	931.29	101.44	-222.12	1079.2	463.17	-242.81	1081.9	129.04	-357.87	983.27	312.72	-46.088	736.9	484.49	24.101	699.79	420.2	-14.623	654.32	462.52	-12.759	778.68	440.72	24.484	574.81	442.1	34.276	563.09	307.1	81.089	331.16	434.14	166.95	308.55	440.8	122.81	267.01	419.8	126.06	373.97	452.37	213.96	208.76	425.66	220.72	245.36	341.46	202.51	123.93	361.29	235.17	110.6	335.24	226.67	106.84	398.89	351.62	205.99	468.56	379.49	243.96	355.27	409.71	297.46	406.68	-309.95	698.75	116.6	-248.11	609.5	139.36	-320.12	605.54	137.02	-231.36	696.52	115.68	-332.58	513.32	148.13	-441.22	330.69	159.97	-389.12	258.75	163.75	-458.7	262.46	181.62	-375.71	326.8	148.09	-457.28	122.4	194.36	-420.16	132.23	280.63	-520.37	72.916	251.8	-509.94	46.681	282.5	-523	48.077	222.02	-344.74	36.989	154.43	-313.16	44.84	273.07	-252.77	50.551	214.85	-229.18	1554.4	292.78	-346.93	1278	294.87
141	0.58333	-77.713	1250.4	294.01	-159.72	1510.5	455.02	-171.34	1523.4	117.05	-169.32	1810.2	281.88	-130.46	995.03	414.85	-147.68	1000.2	166.63	-337.02	1012.7	347.41	-342.83	1023	256.69	-196.37	916.46	489.89	-253.47	930.61	101.52	-216.34	1077.8	463.4	-238.18	1081	129.33	-352.62	982.23	313.29	-41.049	734.97	483.97	28.856	697.6	419.51	-9.8789	652.27	461.97	-7.7707	776.6	440.07	29.21	573.06	441.74	38.733	561.03	306.59	88.414	330.01	434.48	174.53	308.45	441.19	130.9	266.35	420.37	132.9	373.46	452.61	222.87	209.11	426.31	229.12	245.58	342.04	212.38	123.98	362.16	245.19	110.96	336.13	236.76	107.24	399.79	360.62	207.99	469.15	388	246.06	355.77	417.65	300.03	407.03	-306.61	698.35	116.72	-245.13	608.82	139.24	-317.16	605.18	137.08	-228.04	695.76	115.53	-330.1	512.99	148.18	-439.76	330.96	160.16	-388.08	258.71	163.81	-457.61	262.82	181.8	-374.31	326.68	148.15	-456.94	122.69	194.53	-419.66	132.34	280.78	-520.19	73.213	252.06	-509.77	46.946	282.73	-522.9	48.399	222.27	-344.74	36.994	154.46	-313.03	44.778	273.08	-252.68	50.391	214.82	-224.13	1553.2	293.48	-341.88	1276.8	295.56
142	0.5875	-72.609	1249.2	294.1	-154.41	1509.2	455.61	-166.5	1522.4	117.68	-164.33	1809	282.85	-124.82	993.66	414.64	-142.94	999.17	166.47	-331.61	1011.5	347.98	-337.73	1022	257.3	-190.53	914.97	489.8	-249.12	929.92	101.61	-210.55	1076.4	463.62	-233.55	1080.1	129.62	-347.35	981.17	313.86	-35.946	733.1	483.45	33.701	695.5	418.83	-5.0384	650.3	461.43	-2.7111	774.6	439.43	34.022	571.35	441.41	43.256	559	306.14	95.554	328.86	434.8	181.9	308.25	441.56	138.73	265.65	420.93	139.6	372.89	452.85	231.44	209.32	426.92	237.21	245.67	342.57	221.79	123.93	362.98	254.73	111.19	336.97	246.39	107.5	400.64	369.25	209.7	469.68	396.16	247.85	356.2	425.3	302.25	407.32	-303.24	697.93	116.85	-242.11	608.14	139.1	-314.17	604.82	137.14	-224.69	694.99	115.38	-327.58	512.65	148.22	-438.26	331.22	160.34	-387.01	258.67	163.87	-456.49	263.19	181.97	-372.86	326.57	148.2	-456.58	122.99	194.69	-419.16	132.46	280.92	-520.01	73.538	252.31	-509.59	47.244	282.95	-522.8	48.75	222.5	-344.74	36.998	154.5	-312.89	44.717	273.09	-252.6	50.229	214.79	-219.05	1552	294.19	-336.81	1275.6	296.26
143	0.59167	-67.484	1248	294.2	-149.08	1507.8	456.2	-161.64	1521.5	118.31	-159.32	1807.8	283.84	-119.17	992.27	414.43	-138.2	998.15	166.31	-326.19	1010.3	348.56	-332.61	1021	257.92	-184.69	913.49	489.73	-244.76	929.22	101.71	-204.76	1074.9	463.86	-228.9	1079.2	129.93	-342.08	980.09	314.43	-30.778	731.3	482.93	38.636	693.49	418.17	-0.097869	648.41	460.91	2.4228	772.68	438.8	38.926	569.7	441.12	47.852	557.03	305.76	102.51	327.69	435.11	189.05	307.94	441.91	146.29	264.9	421.47	146.17	372.24	453.09	239.65	209.39	427.49	244.97	245.61	343.07	230.76	123.75	363.76	263.79	111.26	337.75	255.55	107.61	401.43	377.51	211.12	470.14	403.98	249.32	356.55	432.66	304.1	407.54	-299.83	697.51	116.99	-239.07	607.44	138.95	-311.14	604.44	137.2	-221.31	694.21	115.22	-325.01	512.3	148.26	-436.72	331.49	160.51	-385.9	258.63	163.91	-455.33	263.57	182.13	-371.38	326.45	148.24	-456.22	123.31	194.83	-418.65	132.59	281.06	-519.81	73.897	252.54	-509.42	47.577	283.16	-522.69	49.132	222.72	-344.73	37.003	154.53	-312.76	44.659	273.1	-252.51	50.064	214.75	-213.94	1550.8	294.91	-331.73	1274.3	296.96
144	0.59583	-62.337	1246.8	294.31	-143.73	1506.4	456.81	-156.74	1520.5	118.95	-154.3	1806.6	284.84	-113.52	990.88	414.23	-133.44	997.11	166.17	-320.77	1009.2	349.13	-327.48	1020	258.54	-178.84	912.01	489.66	-240.38	928.5	101.83	-198.96	1073.5	464.1	-224.24	1078.3	130.24	-336.8	979	315.01	-25.54	729.57	482.41	43.664	691.57	417.53	4.9459	646.6	460.41	7.6328	770.84	438.17	43.923	568.1	440.86	52.523	555.1	305.43	109.28	326.5	435.41	195.99	307.51	442.24	153.58	264.09	421.99	152.6	371.52	453.31	247.5	209.3	428	252.41	245.39	343.51	239.26	123.43	364.47	272.38	111.16	338.47	264.22	107.56	402.16	385.4	212.21	470.52	411.45	250.45	356.84	439.74	305.56	407.69	-296.4	697.08	117.13	-235.98	606.74	138.8	-308.08	604.05	137.26	-217.91	693.43	115.06	-322.4	511.94	148.29	-435.13	331.77	160.66	-384.76	258.6	163.94	-454.14	263.96	182.27	-369.85	326.32	148.28	-455.83	123.64	194.96	-418.13	132.74	281.18	-519.61	74.291	252.75	-509.25	47.948	283.35	-522.57	49.547	222.93	-344.72	37.009	154.56	-312.62	44.603	273.11	-252.42	49.896	214.72	-208.81	1549.5	295.65	-326.62	1273.1	297.67
145	0.6	-57.169	1245.6	294.44	-138.35	1505	457.44	-151.82	1519.5	119.6	-149.26	1805.3	285.86	-107.86	989.48	414.04	-128.68	996.07	166.04	-315.34	1008	349.71	-322.35	1019	259.17	-172.97	910.54	489.61	-235.99	927.78	101.96	-193.17	1072.1	464.34	-219.56	1077.4	130.57	-331.51	977.89	315.59	-20.23	727.92	481.91	48.785	689.74	416.91	10.095	644.88	459.94	12.919	769.09	437.56	49.017	566.56	440.64	57.275	553.22	305.17	115.86	325.29	435.7	202.72	306.95	442.53	160.59	263.21	422.48	158.9	370.71	453.52	254.98	209.03	428.47	259.53	245	343.91	247.29	122.95	365.12	280.47	110.87	339.12	272.41	107.32	402.82	392.92	212.97	470.84	418.58	251.21	357.06	446.54	306.62	407.77	-292.94	696.63	117.27	-232.86	606.03	138.63	-304.98	603.65	137.32	-214.47	692.64	114.9	-319.73	511.57	148.31	-433.5	332.05	160.79	-383.59	258.57	163.97	-452.91	264.36	182.39	-368.28	326.2	148.31	-455.43	124	195.08	-417.61	132.91	281.29	-519.41	74.723	252.94	-509.09	48.358	283.53	-522.46	49.998	223.12	-344.71	37.015	154.59	-312.48	44.55	273.11	-252.33	49.724	214.69	-203.64	1548.3	296.4	-321.49	1271.8	298.39
146	0.60417	-51.979	1244.4	294.58	-132.94	1503.5	458.07	-146.85	1518.5	120.27	-144.21	1804	286.89	-102.2	988.08	413.86	-123.9	995.02	165.92	-309.9	1006.7	350.29	-317.2	1017.9	259.8	-167.1	909.09	489.58	-231.59	927.05	102.1	-187.36	1070.6	464.59	-214.86	1076.4	130.92	-326.21	976.76	316.18	-14.845	726.35	481.42	53.999	688	416.32	15.349	643.25	459.51	18.282	767.41	436.97	54.207	565.06	440.46	62.111	551.4	304.96	122.24	324.06	435.97	209.23	306.25	442.8	167.33	262.25	422.94	165.07	369.81	453.72	262.1	208.58	428.88	266.32	244.43	344.25	254.84	122.31	365.7	288.07	110.38	339.69	280.1	106.88	403.41	400.07	213.37	471.08	425.38	251.61	357.21	453.07	307.26	407.8	-289.44	696.18	117.42	-229.7	605.32	138.46	-301.84	603.24	137.38	-211.01	691.85	114.74	-317.02	511.2	148.32	-431.82	332.34	160.91	-382.38	258.54	163.99	-451.64	264.77	182.5	-366.66	326.08	148.34	-455.02	124.38	195.18	-417.07	133.1	281.39	-519.19	75.197	253.11	-508.92	48.81	283.69	-522.33	50.487	223.28	-344.69	37.022	154.61	-312.34	44.5	273.12	-252.24	49.551	214.65	-198.44	1547	297.16	-316.34	1270.5	299.12
